<?xml version="1.0" encoding="utf-8"?>
<!-- Generator: Adobe Illustrator 18.1.0, SVG Export Plug-In . SVG Version: 6.00 Build 0)  -->
<svg version="1.1" id="Capa_1" xmlns="http://www.w3.org/2000/svg" xmlns:xlink="http://www.w3.org/1999/xlink" x="0px" y="0px"
	 viewBox="0 0 123.3 123.4" enable-background="new 0 0 123.3 123.4" xml:space="preserve">
<g>
	<path fill="#494949" d="M117.3,123.4H6c-3.3,0-6-2.7-6-6V6c0-3.3,2.7-6,6-6h111.3c3.3,0,6,2.7,6,6v111.4
		C123.3,120.7,120.6,123.4,117.3,123.4z"/>
	<g>
		<path fill="#FFFFFF" d="M91.2,38.8c0-7.5,4-14,10-17.6c-2.8-1.4-5.9-2.2-9.3-2.2c-11.3,0-20.5,9.2-20.5,20.5
			c0,11.3,9.2,20.5,20.5,20.5c3.8,0,7.4-1,10.4-2.9C95.7,53.7,91.2,46.8,91.2,38.8z"/>
		<g>
			<circle fill="#FF7F00" cx="41.4" cy="39.5" r="20.5"/>
			<circle fill="#FF9833" cx="41.4" cy="39.5" r="14.8"/>
			<circle fill="#FFCB66" cx="41.4" cy="39.5" r="9.5"/>
		</g>
	</g>
	<g>
		<text transform="matrix(1 0 0 1 34.0764 86.328)"><tspan x="0" y="0" fill="#FFFFFF" font-family="'SourceSansPro-Regular'" font-size="14">Siempre </tspan><tspan x="8.2" y="18" fill="#FFFFFF" font-family="'SourceSansPro-Regular'" font-size="14">activa</tspan></text>
	</g>
</g>
</svg>
