<?xml version="1.0" encoding="utf-8"?>
<!-- Generator: Adobe Illustrator 18.1.0, SVG Export Plug-In . SVG Version: 6.00 Build 0)  -->
<svg version="1.1" id="Capa_1" xmlns="http://www.w3.org/2000/svg" xmlns:xlink="http://www.w3.org/1999/xlink" x="0px" y="0px"
	 viewBox="0 0 123.3 123.4" enable-background="new 0 0 123.3 123.4" xml:space="preserve">
<g>
	<path fill="#494949" d="M117.3,123H6c-3.3,0-6-2.7-6-6V5.6c0-3.3,2.7-6,6-6h111.3c3.3,0,6,2.7,6,6V117
		C123.3,120.3,120.6,123,117.3,123z"/>
	<g>
		<text transform="matrix(1 0 0 1 34.0766 85.8961)"><tspan x="0" y="0" fill="#FFFFFF" font-family="'SourceSansPro-Regular'" font-size="14">Siempre </tspan><tspan x="-8.3" y="18" fill="#FFFFFF" font-family="'SourceSansPro-Regular'" font-size="14">actualizado</tspan></text>
	</g>
	<path fill="#6C9737" d="M50.5,53.5c-4.2-3.4-6.6-8.5-6.6-13.9c0-9.7,7.6-17.6,17.2-18v4.3L72.9,19l-11.8-6.8v4.4
		C48.8,17,38.9,27.2,38.9,39.5c0,6.2,2.5,12.4,7,16.5"/>
	<path fill="#4E7237" d="M71.6,25.3c4.2,3.4,6.6,8.5,6.6,13.9c0,9.7-7.6,17.6-17.2,18v-4.3l-11.8,6.8L61,66.5v-4.4
		c12.3-0.4,22.1-10.6,22.1-22.9c0-6.2-2.5-12.4-7-16.5"/>
</g>
</svg>
