<?xml version="1.0" encoding="utf-8"?>
<!-- Generator: Adobe Illustrator 18.1.0, SVG Export Plug-In . SVG Version: 6.00 Build 0)  -->
<svg version="1.1" id="Capa_1" xmlns="http://www.w3.org/2000/svg" xmlns:xlink="http://www.w3.org/1999/xlink" x="0px" y="0px"
	 viewBox="0 0 123.3 123.4" enable-background="new 0 0 123.3 123.4" xml:space="preserve">
<g>
	<path fill="#494949" d="M117.3,123.4H6c-3.3,0-6-2.7-6-6V6c0-3.3,2.7-6,6-6h111.3c3.3,0,6,2.7,6,6v111.4
		C123.3,120.7,120.6,123.4,117.3,123.4z"/>
	<g>
		<text transform="matrix(1 0 0 1 16.9473 86.328)"><tspan x="0" y="0" fill="#FFFFFF" font-family="'SourceSansPro-Regular'" font-size="14">Tu información</tspan><tspan x="22.4" y="18" fill="#FFFFFF" font-family="'SourceSansPro-Regular'" font-size="14">privada</tspan></text>
	</g>
	<path fill="#3397FF" d="M74.2,34.3v-5.8c0-6.9-5.6-12.6-12.6-12.6s-12.6,5.6-12.6,12.6v5.8h-2.3v20.9c0,1.3,1.1,2.4,2.4,2.4h25
		c1.3,0,2.4-1.1,2.4-2.4V34.3H74.2z M53.2,28.5c0-4.6,3.8-8.4,8.4-8.4s8.4,3.8,8.4,8.4v5.8H53.2V28.5z M62.7,46v5.5h-2.1V46
		c-1.1-0.4-1.9-1.5-1.9-2.8c0-1.6,1.3-3,3-3c1.6,0,3,1.3,3,3C64.6,44.5,63.8,45.6,62.7,46z"/>
</g>
</svg>
