<?xml version="1.0" encoding="utf-8"?>
<!-- Generator: Adobe Illustrator 18.1.0, SVG Export Plug-In . SVG Version: 6.00 Build 0)  -->
<svg version="1.1" id="Capa_1" xmlns="http://www.w3.org/2000/svg" xmlns:xlink="http://www.w3.org/1999/xlink" x="0px" y="0px"
	 viewBox="0 0 123.3 123.4" enable-background="new 0 0 123.3 123.4" xml:space="preserve">
<g>
	<path fill="#494949" d="M117.3,123.4H6c-3.3,0-6-2.7-6-6V6c0-3.3,2.7-6,6-6h111.3c3.3,0,6,2.7,6,6v111.4
		C123.3,120.7,120.6,123.4,117.3,123.4z"/>
	<g>
		<text transform="matrix(1 0 0 1 15.8116 86.3278)"><tspan x="0" y="0" fill="#FFFFFF" font-family="'SourceSansPro-Regular'" font-size="14">Información via</tspan><tspan x="29.5" y="18" fill="#FFFFFF" font-family="'SourceSansPro-Regular'" font-size="14">email</tspan></text>
	</g>
	<g>
		<path fill="#EBEBEB" d="M88,57.6H35.3c-2.2,0-4-1.8-4-4V19.9c0-2.2,1.8-4,4-4H88c2.2,0,4,1.8,4,4v33.6C92,55.8,90.2,57.6,88,57.6z
			"/>
		<path fill="#FFFFFF" d="M92,19.2L92,19.2L61.7,40.3L31.3,19.2v0c0-1.8,1.5-3.3,3.3-3.3h54.2C90.6,15.9,92,17.4,92,19.2z"/>
	</g>
</g>
</svg>
