<?xml version="1.0" encoding="utf-8"?>
<!-- Generator: Adobe Illustrator 18.1.0, SVG Export Plug-In . SVG Version: 6.00 Build 0)  -->
<svg version="1.1" id="Capa_1" xmlns="http://www.w3.org/2000/svg" xmlns:xlink="http://www.w3.org/1999/xlink" x="0px" y="0px"
	 viewBox="0 0 123.3 123.4" enable-background="new 0 0 123.3 123.4" xml:space="preserve">
<g>
	<path fill="#494949" d="M117.3,123.4H6c-3.3,0-6-2.7-6-6V6c0-3.3,2.7-6,6-6h111.3c3.3,0,6,2.7,6,6v111.4
		C123.3,120.7,120.6,123.4,117.3,123.4z"/>
	<g>
		<text transform="matrix(1 0 0 1 38.1839 86.3278)"><tspan x="0" y="0" fill="#FFFFFF" font-family="'SourceSansPro-Regular'" font-size="14">Soporte</tspan><tspan x="-6" y="18" fill="#FFFFFF" font-family="'SourceSansPro-Regular'" font-size="14">telefónico</tspan></text>
	</g>
	<path fill="#EC3E3E" d="M70.8,49.4c-0.8,2.9-4.4,3.8-6.5,1.7L56.2,43l-8.1-8.1c-2.1-2.1-1.1-5.7,1.7-6.5l2.6-0.7
		c2.9-0.8,3.8-4.4,1.7-6.5l-4.6-4.6c-0.8-0.8-2.1-0.8-2.8,0.1c-8.3,9.8-7.8,24.4,1.4,33.6S72,60,81.7,51.7c0.9-0.7,0.9-2,0.1-2.8
		L78,45c-2.1-2.1-5.7-1.1-6.5,1.7L70.8,49.4z"/>
</g>
</svg>
