<?xml version="1.0" encoding="utf-8"?>
<!-- Generator: Adobe Illustrator 18.1.0, SVG Export Plug-In . SVG Version: 6.00 Build 0)  -->
<svg version="1.1" id="Capa_1" xmlns="http://www.w3.org/2000/svg" xmlns:xlink="http://www.w3.org/1999/xlink" x="0px" y="0px"
	 viewBox="0 0 23.2 23.2" enable-background="new 0 0 23.2 23.2" xml:space="preserve">
<path id="facebook_2_" fill-rule="evenodd" clip-rule="evenodd" fill="#4F70C1" d="M21.4,23.2H1.8c-1,0-1.8-0.7-1.8-1.7V1.8
	C0,0.8,0.8,0,1.8,0h19.7c1,0,1.8,0.8,1.8,1.8v19.7C23.2,22.5,22.4,23.2,21.4,23.2z M9.9,4.5C8.8,4.5,7.8,4.7,7.1,5
	C6.4,5.3,5.9,5.9,5.7,6.5C5.4,7,5.3,7.7,5.3,8.8v1H3.5v2.7h1.7v9H9v-9h2.3L12,9.8H9v-1c0-0.7,0.1-1.1,0.4-1.3
	c0.2-0.2,0.7-0.4,1.3-0.4c0.6,0,1,0.3,1.6,0.6l0.7-2.6C11.8,4.8,11,4.5,9.9,4.5z"/>
</svg>
