<?xml version="1.0" encoding="utf-8"?>
<!-- Generator: Adobe Illustrator 18.1.0, SVG Export Plug-In . SVG Version: 6.00 Build 0)  -->
<svg version="1.1" id="Capa_1" xmlns="http://www.w3.org/2000/svg" xmlns:xlink="http://www.w3.org/1999/xlink" x="0px" y="0px"
	 viewBox="0 0 28.4 28.4" enable-background="new 0 0 28.4 28.4" xml:space="preserve">
<path id="CIRCLE__x2F__PLAY_5_" fill-rule="evenodd" clip-rule="evenodd" fill="#3398FF" d="M14.2,28.4C6.4,28.4,0,22.1,0,14.2
	S6.4,0,14.2,0c7.9,0,14.2,6.4,14.2,14.2S22.1,28.4,14.2,28.4z M14.2,2.7C7.8,2.7,2.7,7.8,2.7,14.2c0,6.4,5.2,11.6,11.6,11.6
	s11.6-5.2,11.6-11.6C25.8,7.8,20.6,2.7,14.2,2.7z M18.4,15.4l-7.1,4.4l0,0c-0.1,0-0.1,0.1-0.2,0.1c0,0,0,0,0,0c-0.1,0-0.1,0-0.2,0.1
	c0,0,0,0,0,0c0,0,0,0-0.1,0c0,0,0,0,0,0c0,0-0.1,0-0.1,0c0,0,0,0,0,0c0,0,0,0-0.1,0c0,0,0,0,0,0c0,0-0.1,0-0.1,0
	c-0.7,0-1.3-0.6-1.3-1.3l0,0l0,0V9.8l0,0c0-0.7,0.6-1.3,1.3-1.3c0.3,0,0.5,0.1,0.8,0.2l7,4.4c0.4,0.2,0.7,0.7,0.7,1.2
	C19.1,14.7,18.8,15.1,18.4,15.4z"/>
</svg>
